<svg xmlns="http://www.w3.org/2000/svg" width="96" height="96" viewBox="0 0 96 96">
  <path d="M 23.000 87.428 L 23.995 87.000 L 24.000 86.996 L 24.996 86.000 L 25.000 85.995 L 25.433 85.000 L 25.436 84.000 L 25.041 83.000 L 25.321 82.000 L 26.000 81.321 L 26.321 81.000 L 27.000 80.321 L 27.321 80.000 L 28.000 79.321 L 28.321 79.000 L 29.000 78.313 L 29.311 78.000 L 30.000 77.319 L 30.321 77.000 L 31.000 76.313 L 31.311 76.000 L 32.000 75.311 L 32.311 75.000 L 33.000 74.311 L 33.311 74.000 L 34.000 73.311 L 34.311 73.000 L 35.000 72.311 L 35.311 72.000 L 36.000 71.311 L 36.311 71.000 L 37.000 70.311 L 38.000 70.311 L 38.689 71.000 L 39.000 71.311 L 39.689 72.000 L 40.000 72.311 L 40.689 73.000 L 41.000 73.311 L 41.689 74.000 L 42.000 74.311 L 42.880 75.000 L 43.000 75.115 L 44.000 75.477 L 45.000 75.486 L 46.000 75.193 L 46.209 75.000 L 47.000 74.209 L 47.193 74.000 L 47.488 73.000 L 47.477 72.000 L 47.115 71.000 L 47.000 70.880 L 46.311 70.000 L 46.000 69.687 L 45.321 69.000 L 45.000 68.679 L 44.321 68.000 L 44.000 67.681 L 43.319 67.000 L 43.508 66.000 L 44.000 65.548 L 44.616 65.000 L 45.000 64.641 L 45.748 64.000 L 46.000 63.757 L 47.000 63.004 L 47.004 63.000 L 48.000 62.121 L 48.123 62.000 L 49.000 61.276 L 49.288 61.000 L 50.000 60.385 L 50.411 60.000 L 51.000 59.472 L 51.519 59.000 L 52.000 58.556 L 52.626 58.000 L 53.000 57.648 L 53.763 57.000 L 54.000 56.771 L 54.930 56.000 L 55.000 55.931 L 56.000 55.177 L 56.182 55.000 L 57.000 54.318 L 57.334 54.000 L 58.000 53.401 L 58.425 53.000 L 59.000 52.483 L 59.530 52.000 L 60.000 51.564 L 60.635 51.000 L 61.000 50.657 L 61.769 50.000 L 62.000 49.776 L 62.966 49.000 L 63.000 48.966 L 64.000 48.177 L 64.182 48.000 L 65.000 47.314 L 65.330 47.000 L 66.000 46.419 L 66.456 46.000 L 67.000 45.508 L 67.564 45.000 L 68.000 44.595 L 68.679 44.000 L 69.000 43.694 L 69.834 43.000 L 70.000 42.839 L 71.000 42.062 L 71.063 42.000 L 72.000 41.209 L 72.216 41.000 L 73.000 40.336 L 73.355 40.000 L 74.000 39.431 L 74.464 39.000 L 75.000 38.513 L 75.573 38.000 L 76.000 37.602 L 76.688 37.000 L 77.000 36.703 L 77.847 36.000 L 78.000 35.850 L 79.000 35.121 L 79.122 35.000 L 80.000 34.235 L 80.242 34.000 L 81.000 33.311 L 81.313 33.000 L 82.000 32.170 L 82.161 32.000 L 82.657 31.000 L 83.000 30.455 L 83.303 30.000 L 83.535 29.000 L 83.746 28.000 L 84.000 27.298 L 84.127 27.000 L 84.387 26.000 L 84.536 25.000 L 84.720 24.000 L 85.000 23.202 L 85.089 23.000 L 85.372 22.000 L 85.525 21.000 L 85.701 20.000 L 86.000 19.121 L 86.056 19.000 L 86.356 18.000 L 86.513 17.000 L 86.682 16.000 L 87.000 15.040 L 87.019 15.000 L 87.336 14.000 L 87.446 13.000 L 87.428 12.000 L 87.203 11.000 L 87.000 10.725 L 86.585 10.000 L 86.000 9.261 L 85.739 9.000 L 85.000 8.415 L 84.287 8.000 L 84.000 7.787 L 83.000 7.569 L 82.000 7.559 L 81.000 7.671 L 80.000 7.996 L 79.992 8.000 L 79.000 8.332 L 78.000 8.498 L 77.000 8.661 L 76.000 8.996 L 75.992 9.000 L 75.000 9.332 L 74.000 9.498 L 73.000 9.664 L 72.000 9.996 L 71.992 10.000 L 71.000 10.332 L 70.000 10.500 L 69.000 10.664 L 68.000 10.996 L 67.992 11.000 L 67.000 11.332 L 66.000 11.509 L 65.000 11.773 L 64.688 12.000 L 64.000 12.397 L 63.000 12.938 L 62.936 13.000 L 62.000 13.753 L 61.755 14.000 L 61.000 14.865 L 60.867 15.000 L 60.062 16.000 L 60.000 16.063 L 59.243 17.000 L 59.000 17.253 L 58.358 18.000 L 58.000 18.384 L 57.462 19.000 L 57.000 19.500 L 56.540 20.000 L 56.000 20.601 L 55.624 21.000 L 55.000 21.718 L 54.730 22.000 L 54.000 22.872 L 53.873 23.000 L 53.076 24.000 L 53.000 24.077 L 52.253 25.000 L 52.000 25.266 L 51.385 26.000 L 51.000 26.404 L 50.452 27.000 L 50.000 27.492 L 49.533 28.000 L 49.000 28.593 L 48.618 29.000 L 48.000 29.712 L 47.724 30.000 L 47.000 30.871 L 46.873 31.000 L 46.096 32.000 L 46.000 32.097 L 45.262 33.000 L 45.000 33.273 L 44.370 34.000 L 44.000 34.397 L 43.470 35.000 L 43.000 35.511 L 42.548 36.000 L 42.000 36.610 L 41.630 37.000 L 41.000 37.723 L 40.734 38.000 L 40.000 38.890 L 39.892 39.000 L 39.156 40.000 L 39.000 40.159 L 38.293 41.000 L 38.000 41.307 L 37.390 42.000 L 37.000 42.416 L 36.472 43.000 L 36.000 43.514 L 35.551 44.000 L 35.000 44.613 L 34.636 45.000 L 34.000 45.761 L 33.771 46.000 L 33.000 46.904 L 32.904 47.000 L 32.127 48.000 L 32.000 48.129 L 31.280 49.000 L 31.000 49.292 L 30.385 50.000 L 30.000 50.411 L 29.470 51.000 L 29.000 51.514 L 28.000 51.681 L 27.311 51.000 L 27.000 50.689 L 26.311 50.000 L 26.000 49.689 L 25.311 49.000 L 25.000 48.689 L 24.133 48.000 L 24.000 47.873 L 23.000 47.518 L 22.000 47.512 L 21.000 47.797 L 20.779 48.000 L 20.000 48.779 L 19.797 49.000 L 19.512 50.000 L 19.519 51.000 L 19.873 52.000 L 20.000 52.133 L 20.689 53.000 L 21.000 53.310 L 21.706 54.000 L 22.000 54.294 L 22.706 55.000 L 23.000 55.295 L 23.689 56.000 L 24.000 56.310 L 24.706 57.000 L 24.706 58.000 L 24.000 58.706 L 23.706 59.000 L 23.000 59.706 L 22.706 60.000 L 22.000 60.706 L 21.706 61.000 L 21.000 61.690 L 20.689 62.000 L 20.000 62.705 L 19.706 63.000 L 19.000 63.706 L 18.706 64.000 L 18.000 64.706 L 17.706 65.000 L 17.000 65.706 L 16.706 66.000 L 16.000 66.690 L 15.689 67.000 L 15.000 67.705 L 14.706 68.000 L 14.000 68.706 L 13.706 69.000 L 13.000 69.690 L 12.000 69.951 L 11.000 69.562 L 10.000 69.562 L 9.000 69.988 L 8.988 70.000 L 8.000 70.996 L 7.996 71.000 L 7.564 72.000 L 7.559 73.000 L 7.951 74.000 L 8.000 74.051 L 8.689 75.000 L 9.000 75.311 L 9.689 76.000 L 10.000 76.310 L 10.706 77.000 L 11.000 77.295 L 11.689 78.000 L 12.000 78.310 L 12.706 79.000 L 13.000 79.294 L 13.706 80.000 L 14.000 80.294 L 14.706 81.000 L 15.000 81.294 L 15.706 82.000 L 16.000 82.294 L 16.706 83.000 L 17.000 83.294 L 17.706 84.000 L 18.000 84.295 L 18.689 85.000 L 19.000 85.311 L 19.689 86.000 L 20.000 86.311 L 20.956 87.000 L 21.000 87.041 L 22.000 87.436 Z M 40.182 61.000 L 40.000 61.177 L 39.000 61.904 L 38.000 61.687 L 37.321 61.000 L 37.000 60.679 L 36.321 60.000 L 36.000 59.679 L 35.321 59.000 L 35.000 58.679 L 34.321 58.000 L 34.000 57.679 L 33.321 57.000 L 33.096 56.000 L 33.873 55.000 L 34.000 54.872 L 34.730 54.000 L 35.000 53.716 L 35.615 53.000 L 36.000 52.587 L 36.528 52.000 L 37.000 51.486 L 37.447 51.000 L 38.000 50.378 L 38.358 50.000 L 39.000 49.253 L 39.244 49.000 L 40.000 48.077 L 40.076 48.000 L 40.850 47.000 L 41.000 46.847 L 41.724 46.000 L 42.000 45.714 L 42.624 45.000 L 43.000 44.598 L 43.538 44.000 L 44.000 43.486 L 44.441 43.000 L 45.000 42.378 L 45.356 42.000 L 46.000 41.256 L 46.249 41.000 L 47.000 40.056 L 47.056 40.000 L 47.861 39.000 L 48.000 38.859 L 48.720 38.000 L 49.000 37.708 L 49.618 37.000 L 50.000 36.588 L 50.517 36.000 L 51.000 35.473 L 51.439 35.000 L 52.000 34.365 L 52.345 34.000 L 53.000 33.237 L 53.229 33.000 L 54.000 32.042 L 54.041 32.000 L 54.828 31.000 L 55.000 30.823 L 55.694 30.000 L 56.000 29.679 L 56.595 29.000 L 57.000 28.566 L 57.513 28.000 L 58.000 27.464 L 58.431 27.000 L 59.000 26.366 L 59.349 26.000 L 60.000 25.247 L 60.238 25.000 L 61.000 24.027 L 61.027 24.000 L 61.850 23.000 L 62.000 22.847 L 62.711 22.000 L 63.000 21.694 L 63.593 21.000 L 64.000 20.566 L 64.513 20.000 L 65.000 19.467 L 65.434 19.000 L 66.000 18.381 L 66.394 18.000 L 67.000 17.529 L 68.000 17.267 L 68.727 17.000 L 69.000 16.879 L 70.000 16.610 L 71.000 16.477 L 72.000 16.318 L 72.875 16.000 L 73.000 15.938 L 74.000 15.625 L 75.000 15.477 L 76.000 15.318 L 76.875 15.000 L 77.000 14.938 L 78.000 14.625 L 79.000 14.461 L 80.000 14.263 L 80.750 15.000 L 80.554 16.000 L 80.410 17.000 L 80.167 18.000 L 80.000 18.405 L 79.773 19.000 L 79.564 20.000 L 79.423 21.000 L 79.193 22.000 L 79.000 22.484 L 78.797 23.000 L 78.574 24.000 L 78.438 25.000 L 78.218 26.000 L 78.000 26.563 L 77.823 27.000 L 77.511 28.000 L 77.000 28.678 L 76.685 29.000 L 76.000 29.624 L 75.598 30.000 L 75.000 30.538 L 74.497 31.000 L 74.000 31.459 L 73.402 32.000 L 73.000 32.374 L 72.262 33.000 L 72.000 33.253 L 71.084 34.000 L 71.000 34.083 L 70.000 34.867 L 69.865 35.000 L 69.000 35.711 L 68.698 36.000 L 68.000 36.607 L 67.578 37.000 L 67.000 37.531 L 66.500 38.000 L 66.000 38.460 L 65.393 39.000 L 65.000 39.368 L 64.262 40.000 L 64.000 40.253 L 63.116 41.000 L 63.000 41.115 L 62.000 41.850 L 61.847 42.000 L 61.000 42.703 L 60.688 43.000 L 60.000 43.598 L 59.569 44.000 L 59.000 44.513 L 58.464 45.000 L 58.000 45.429 L 57.350 46.000 L 57.000 46.331 L 56.205 47.000 L 56.000 47.199 L 55.000 47.996 L 54.996 48.000 L 54.000 48.796 L 53.790 49.000 L 53.000 49.673 L 52.654 50.000 L 52.000 50.574 L 51.541 51.000 L 51.000 51.492 L 50.439 52.000 L 50.000 52.410 L 49.326 53.000 L 49.000 53.312 L 48.194 54.000 L 48.000 54.188 L 47.000 54.996 L 46.996 55.000 L 46.000 55.771 L 45.763 56.000 L 45.000 56.655 L 44.635 57.000 L 44.000 57.561 L 43.525 58.000 L 43.000 58.477 L 42.416 59.000 L 42.000 59.394 L 41.330 60.000 L 41.000 60.314 Z M 21.706 77.000 L 21.000 77.690 L 20.000 77.687 L 19.321 77.000 L 19.000 76.681 L 18.311 76.000 L 18.000 75.689 L 17.311 75.000 L 17.311 74.000 L 18.000 73.311 L 18.311 73.000 L 19.000 72.311 L 19.311 72.000 L 20.000 71.311 L 20.311 71.000 L 21.000 70.311 L 21.311 70.000 L 22.000 69.319 L 22.321 69.000 L 23.000 68.321 L 23.321 68.000 L 24.000 67.313 L 24.311 67.000 L 25.000 66.319 L 25.321 66.000 L 26.000 65.321 L 26.321 65.000 L 27.000 64.321 L 27.321 64.000 L 28.000 63.321 L 28.321 63.000 L 29.000 62.313 L 30.000 62.310 L 30.706 63.000 L 31.000 63.294 L 31.706 64.000 L 32.000 64.294 L 32.706 65.000 L 32.706 66.000 L 32.000 66.690 L 31.689 67.000 L 31.000 67.705 L 30.706 68.000 L 30.000 68.706 L 29.706 69.000 L 29.000 69.690 L 28.689 70.000 L 28.000 70.689 L 27.689 71.000 L 27.000 71.689 L 26.689 72.000 L 26.000 72.689 L 25.689 73.000 L 25.000 73.689 L 24.689 74.000 L 24.000 74.689 L 23.689 75.000 L 23.000 75.689 L 22.689 76.000 L 22.000 76.705 Z" fill="#000" fill-rule="evenodd"/>
</svg>
