<?xml version="1.0" encoding="UTF-8"?>
<svg xmlns="http://www.w3.org/2000/svg" width="290" height="105" viewBox="0 0 290 105" role="img" aria-label="LOIAR logotype">
  <title>LOIAR Logotype</title>
  <path d="M 241.250 38.500 L 242.000 37.750 L 242.500 37.500 L 243.000 37.500 L 243.250 37.750 L 244.500 37.750 L 244.750 37.500 L 248.750 37.500 L 249.000 37.750 L 253.250 37.750 L 253.500 38.000 L 254.250 38.000 L 256.500 40.000 L 256.750 40.500 L 256.750 41.000 L 257.500 42.250 L 257.500 44.500 L 256.750 45.750 L 256.750 46.250 L 255.250 47.750 L 254.750 47.750 L 253.000 48.750 L 246.250 48.750 L 246.000 49.000 L 242.500 49.000 L 242.250 48.750 L 241.750 48.750 L 241.250 48.250 L 241.500 47.750 L 241.500 39.250 L 241.250 39.000 Z M 95.750 37.250 L 100.250 37.250 L 100.500 37.500 L 101.250 37.500 L 101.500 37.750 L 102.250 37.750 L 102.500 38.000 L 103.000 38.000 L 103.500 38.250 L 103.750 38.750 L 105.000 39.250 L 105.750 40.000 L 106.000 40.000 L 107.750 41.750 L 107.750 42.000 L 108.500 42.750 L 109.000 44.000 L 109.750 44.750 L 110.000 47.000 L 110.250 47.250 L 110.250 48.000 L 110.500 48.250 L 110.500 49.500 L 110.750 49.750 L 110.750 50.500 L 110.500 50.750 L 110.500 52.250 L 110.250 52.500 L 110.250 53.250 L 110.000 53.500 L 110.000 54.250 L 109.750 54.500 L 109.750 55.500 L 109.000 56.500 L 108.500 57.750 L 107.000 59.500 L 106.750 59.500 L 104.250 61.750 L 103.500 61.750 L 102.000 62.750 L 101.250 62.750 L 101.000 63.000 L 99.000 63.000 L 98.750 63.250 L 97.250 63.250 L 97.000 63.000 L 95.000 63.000 L 94.750 62.750 L 93.750 62.750 L 93.250 62.250 L 92.250 61.750 L 91.750 61.750 L 90.750 61.000 L 90.500 61.000 L 87.750 58.250 L 87.750 58.000 L 87.000 57.250 L 87.000 56.750 L 86.500 56.250 L 86.000 55.250 L 85.750 53.000 L 85.250 52.000 L 85.250 48.500 L 85.500 48.250 L 85.500 47.500 L 85.750 47.250 L 85.750 46.500 L 86.000 46.250 L 86.000 45.250 L 86.250 45.000 L 86.250 44.500 L 86.750 44.000 L 87.000 43.250 L 87.500 42.750 L 88.000 41.750 L 88.750 41.000 L 89.000 41.000 L 89.250 40.500 L 89.750 40.250 L 90.750 39.250 L 91.250 39.000 L 91.750 39.000 L 92.500 38.250 L 93.000 38.000 L 93.500 38.000 L 93.750 37.750 L 94.750 37.750 Z M 141.250 28.500 L 140.750 29.000 L 140.750 71.500 L 141.500 72.000 L 150.500 72.000 L 151.000 71.750 L 151.000 71.250 L 151.250 71.000 L 151.250 69.500 L 151.000 69.250 L 151.000 65.000 L 151.250 64.750 L 151.250 31.000 L 151.000 30.750 L 151.000 30.250 L 151.250 30.000 L 151.250 29.500 L 150.750 28.500 Z M 231.500 28.500 L 231.000 29.250 L 231.000 71.500 L 231.500 72.000 L 240.750 72.000 L 241.500 71.500 L 241.500 59.000 L 241.250 58.750 L 241.750 58.000 L 242.500 58.000 L 242.750 57.750 L 243.000 58.000 L 246.750 58.000 L 247.000 57.750 L 247.250 58.000 L 248.000 58.000 L 248.750 58.750 L 249.000 59.500 L 249.750 60.250 L 250.000 61.000 L 250.750 61.750 L 250.750 62.250 L 251.750 63.250 L 252.750 65.250 L 253.750 66.250 L 254.000 67.000 L 254.750 67.750 L 254.750 68.250 L 256.000 69.500 L 256.250 70.250 L 256.750 70.750 L 256.750 71.250 L 257.250 71.750 L 257.750 72.000 L 268.750 72.000 L 269.250 71.500 L 269.250 71.000 L 269.000 70.500 L 268.250 69.750 L 267.750 68.750 L 267.000 68.000 L 266.750 67.250 L 266.250 67.000 L 265.750 66.000 L 265.000 65.250 L 264.750 64.500 L 263.500 63.000 L 262.750 61.500 L 262.000 60.750 L 262.000 60.500 L 261.500 60.000 L 261.000 59.000 L 260.250 58.250 L 260.250 58.000 L 259.250 56.750 L 259.250 56.250 L 260.000 55.750 L 260.500 55.750 L 261.250 55.000 L 262.000 54.750 L 262.750 54.000 L 263.000 54.000 L 264.500 52.750 L 264.500 52.500 L 266.750 49.750 L 267.000 49.250 L 267.000 48.500 L 267.250 48.250 L 267.250 47.750 L 267.750 47.000 L 267.750 45.750 L 268.000 45.500 L 268.000 40.750 L 267.750 40.500 L 267.750 39.000 L 267.250 38.250 L 267.000 36.500 L 266.750 36.000 L 266.000 35.250 L 265.750 34.500 L 265.000 33.750 L 265.000 33.500 L 263.250 31.750 L 263.000 31.750 L 262.250 31.000 L 261.000 30.500 L 260.000 29.750 L 258.750 29.500 L 257.250 28.750 L 254.750 28.750 L 254.500 28.500 L 253.250 28.500 L 253.000 28.250 L 233.750 28.250 L 233.500 28.500 Z M 185.750 28.750 L 185.500 30.000 L 185.000 30.750 L 185.000 31.250 L 184.750 31.500 L 184.750 32.250 L 184.000 33.000 L 183.750 33.500 L 183.750 34.250 L 183.000 35.500 L 183.000 36.000 L 182.750 36.250 L 182.750 37.000 L 182.000 37.750 L 181.750 39.000 L 181.000 40.250 L 181.000 41.000 L 180.750 41.250 L 180.750 41.750 L 180.000 42.500 L 179.750 43.000 L 179.750 43.750 L 179.000 45.000 L 179.000 45.500 L 178.750 45.750 L 178.750 46.500 L 178.500 47.000 L 177.750 47.750 L 177.500 49.000 L 176.750 50.500 L 176.750 51.250 L 175.750 52.750 L 175.500 54.000 L 175.000 54.500 L 174.750 56.250 L 173.750 57.500 L 173.750 58.250 L 173.000 59.500 L 173.000 60.250 L 172.750 60.500 L 172.750 61.000 L 171.750 62.500 L 171.750 63.250 L 171.500 63.750 L 171.000 64.250 L 171.000 64.750 L 170.750 65.000 L 170.750 65.750 L 170.000 66.750 L 169.750 68.000 L 169.000 69.250 L 169.000 70.000 L 168.750 70.250 L 168.500 71.500 L 169.000 72.000 L 178.750 72.000 L 179.500 71.250 L 179.750 70.750 L 179.750 70.000 L 180.000 69.750 L 180.000 69.000 L 181.000 67.500 L 181.000 67.000 L 181.750 65.750 L 182.000 64.000 L 183.000 62.500 L 183.000 61.750 L 183.500 61.000 L 183.500 60.500 L 184.000 59.500 L 184.000 58.750 L 185.000 57.250 L 185.000 56.500 L 185.750 55.250 L 185.750 54.750 L 186.000 54.500 L 186.000 53.750 L 187.000 52.250 L 187.000 51.500 L 187.750 50.250 L 188.000 48.500 L 189.000 47.250 L 189.000 46.500 L 189.750 45.250 L 189.750 44.750 L 190.000 44.500 L 190.000 43.750 L 190.500 42.750 L 191.000 42.250 L 191.000 42.000 L 191.500 41.750 L 192.000 42.500 L 192.000 43.250 L 192.750 44.250 L 192.750 44.750 L 193.000 45.000 L 193.000 45.500 L 193.250 45.750 L 193.250 46.250 L 193.750 47.250 L 193.750 48.000 L 194.250 48.500 L 194.750 49.500 L 194.750 50.000 L 195.500 51.500 L 195.500 52.000 L 195.750 52.250 L 196.000 53.500 L 195.500 54.000 L 193.500 54.000 L 192.500 54.500 L 192.000 55.000 L 191.750 55.500 L 191.750 56.250 L 191.000 57.500 L 190.750 58.750 L 189.750 60.250 L 189.750 61.750 L 190.250 62.000 L 195.250 62.000 L 195.500 61.750 L 198.250 61.750 L 198.500 62.000 L 199.250 62.000 L 199.750 62.500 L 199.750 63.250 L 200.750 65.000 L 201.000 66.250 L 201.500 66.750 L 201.500 67.250 L 201.750 67.500 L 201.750 68.250 L 202.000 68.500 L 202.000 69.000 L 202.750 70.000 L 203.000 71.250 L 204.000 72.000 L 213.500 72.000 L 214.000 71.750 L 214.000 70.500 L 213.750 70.250 L 213.750 69.750 L 213.250 69.250 L 213.000 68.750 L 213.000 68.250 L 212.750 68.000 L 212.750 67.500 L 212.250 67.000 L 212.250 66.500 L 212.000 66.250 L 212.000 65.500 L 211.500 64.500 L 211.000 64.000 L 211.000 63.500 L 210.750 63.250 L 210.750 62.500 L 210.250 62.000 L 210.250 61.500 L 210.000 61.250 L 210.000 60.500 L 208.000 56.500 L 208.000 55.750 L 207.750 55.500 L 207.750 55.000 L 207.000 54.000 L 207.000 53.250 L 206.000 51.500 L 206.000 50.500 L 205.000 49.000 L 204.750 47.750 L 204.250 47.250 L 204.250 46.750 L 204.000 46.500 L 204.000 45.750 L 203.000 44.000 L 202.750 42.750 L 202.000 41.750 L 202.000 41.000 L 201.750 40.750 L 201.750 40.250 L 201.250 39.750 L 201.000 39.250 L 201.000 38.500 L 200.000 36.750 L 200.000 35.750 L 199.000 34.000 L 199.000 33.500 L 198.000 31.750 L 197.750 30.500 L 197.000 29.000 L 196.500 28.500 L 195.250 28.500 L 195.000 28.250 L 186.500 28.250 Z M 28.500 28.250 L 28.000 28.750 L 28.000 29.250 L 27.750 29.500 L 27.750 30.250 L 28.000 30.500 L 28.000 32.750 L 27.750 33.000 L 27.750 71.000 L 28.000 71.250 L 28.000 71.750 L 28.500 72.000 L 59.000 72.000 L 59.750 71.500 L 59.750 63.000 L 59.500 62.500 L 59.000 62.500 L 58.750 62.250 L 54.500 62.250 L 54.250 62.500 L 46.500 62.500 L 46.250 62.250 L 44.250 62.250 L 44.000 62.500 L 39.000 62.500 L 38.250 62.000 L 38.250 29.250 L 37.500 28.250 Z M 96.000 27.500 L 95.750 27.750 L 93.750 27.750 L 93.500 28.000 L 92.500 28.000 L 91.750 28.500 L 91.250 28.500 L 91.000 28.750 L 89.750 28.750 L 87.750 29.750 L 87.250 29.750 L 86.750 30.000 L 86.000 30.750 L 85.500 30.750 L 85.000 31.000 L 83.250 32.500 L 82.500 32.750 L 79.500 35.750 L 79.500 36.000 L 78.750 36.750 L 78.750 37.000 L 77.750 38.000 L 77.500 38.500 L 77.500 39.000 L 76.750 40.000 L 76.750 40.500 L 75.750 41.750 L 75.500 43.500 L 75.000 44.500 L 75.000 46.000 L 74.750 46.250 L 74.750 48.000 L 74.500 48.250 L 74.500 52.250 L 74.750 52.500 L 74.750 54.250 L 75.000 54.500 L 75.000 55.750 L 75.500 56.750 L 75.750 58.500 L 76.750 60.000 L 76.750 60.500 L 77.750 62.000 L 77.750 62.500 L 79.000 63.750 L 79.000 64.000 L 79.750 64.750 L 79.750 65.000 L 82.000 67.250 L 82.250 67.250 L 83.000 68.000 L 83.250 68.000 L 84.000 68.750 L 84.250 68.750 L 85.500 69.750 L 88.000 71.000 L 88.500 71.000 L 89.750 71.750 L 90.250 71.750 L 90.500 72.000 L 91.500 72.000 L 91.750 72.250 L 92.750 72.250 L 93.000 72.500 L 93.750 72.500 L 94.000 72.750 L 95.750 72.750 L 96.000 73.000 L 98.750 73.000 L 99.000 72.750 L 101.250 72.750 L 101.500 72.500 L 102.500 72.500 L 102.750 72.250 L 104.000 72.250 L 104.250 72.000 L 105.250 72.000 L 105.500 71.750 L 106.000 71.750 L 106.500 71.250 L 107.750 71.000 L 108.750 70.250 L 109.250 70.250 L 110.250 69.750 L 111.000 69.000 L 111.750 68.750 L 112.500 68.000 L 113.250 67.750 L 116.250 64.750 L 116.250 64.500 L 118.000 62.500 L 118.250 61.750 L 118.750 61.250 L 118.750 60.750 L 120.000 58.750 L 120.000 58.000 L 120.250 57.750 L 120.250 57.250 L 120.750 56.250 L 120.750 55.000 L 121.000 54.750 L 121.000 52.500 L 121.250 52.250 L 121.250 47.750 L 121.000 47.500 L 121.000 45.500 L 120.750 45.250 L 120.750 44.000 L 120.500 43.750 L 120.500 43.250 L 120.000 42.250 L 120.000 41.500 L 119.750 41.000 L 119.000 40.250 L 119.000 39.750 L 118.750 39.250 L 118.250 38.750 L 118.000 38.000 L 117.250 37.250 L 116.750 36.250 L 114.750 34.250 L 114.750 34.000 L 114.250 33.500 L 114.000 33.500 L 111.250 31.250 L 110.500 31.000 L 109.250 30.000 L 108.250 29.500 L 107.750 29.500 L 107.250 29.000 L 106.500 29.000 L 106.250 28.750 L 105.250 28.750 L 103.750 28.000 L 102.500 28.000 L 102.250 27.750 L 100.000 27.750 L 99.750 27.500 Z" fill="#000000" fill-rule="evenodd" clip-rule="evenodd"/>
</svg>
